<?xml version="1.0" encoding="UTF-8" standalone="no"?>
<svg
   width="22.000000"
   height="15.000000"
   viewBox="0 0 22 15"
   fill="currentColor"
   version="1.1"
   id="svg10"
   sodipodi:docname="eye-password-crossed.svg"
   inkscape:version="1.2.2 (732a01da63, 2022-12-09)"
   xmlns:inkscape="http://www.inkscape.org/namespaces/inkscape"
   xmlns:sodipodi="http://sodipodi.sourceforge.net/DTD/sodipodi-0.dtd"
   xmlns="http://www.w3.org/2000/svg"
   xmlns:svg="http://www.w3.org/2000/svg">
  <sodipodi:namedview
     id="namedview12"
     pagecolor="#ffffff"
     bordercolor="#000000"
     borderopacity="0.25"
     inkscape:showpageshadow="2"
     inkscape:pageopacity="0.0"
     inkscape:pagecheckerboard="0"
     inkscape:deskcolor="#d1d1d1"
     showgrid="false"
     inkscape:zoom="37.900923"
     inkscape:cx="10.474679"
     inkscape:cy="6.4246456"
     inkscape:window-width="1920"
     inkscape:window-height="991"
     inkscape:window-x="-9"
     inkscape:window-y="-9"
     inkscape:window-maximized="1"
     inkscape:current-layer="layer1"
     inkscape:lockguides="true" />
  <defs
     id="defs2" />
  <mask
     id="mask_0_989"
     fill="white">
    <path
       id=" ↳Color"
       d="M11 0C6 0 1.73047 3.11 0 7.5C1.73047 11.89 6 15 11 15C16 15 20.2695 11.89 22 7.5C20.2695 3.11 16 0 11 0ZM11 12.5C8.24023 12.5 6 10.26 6 7.5C6 4.74001 8.24023 2.5 11 2.5C13.7598 2.5 16 4.74001 16 7.5C16 10.26 13.7598 12.5 11 12.5ZM8 7.5C8 5.84 9.33984 4.5 11 4.5C12.6602 4.5 14 5.84 14 7.5C14 9.16 12.6602 10.5 11 10.5C9.33984 10.5 8 9.16 8 7.5Z"
       clip-rule="evenodd"
       fill=""
       fill-opacity="1.000000"
       fill-rule="evenodd" />
  </mask>
  <g
     inkscape:groupmode="layer"
     id="layer1"
     inkscape:label="Layer 1">
    <path
       id="path6"
       mask="url(#mask_0_989)"
       style="display:inline"
       d="M 11 0 C 8.5825862 0 6.3363529 0.72746933 4.4648438 1.9746094 L 7.5488281 3.8886719 C 8.4467185 3.0303655 9.6608762 2.5 11 2.5 C 13.759797 2.5 16 4.7400128 16 7.5 C 16 8.02121 15.919678 8.5235559 15.771484 8.9960938 L 19.544922 11.337891 C 20.593142 10.238853 21.433122 8.938078 22 7.5 C 20.269502 3.1100044 15.999995 0 11 0 z M 2.4804688 3.6367188 C 1.4206893 4.7412028 0.57132938 6.0506042 0 7.5 C 1.7304683 11.889996 6.000005 15 11 15 C 13.430402 15 15.686951 14.263361 17.564453 13.003906 L 14.476562 11.087891 C 13.576335 11.960336 12.35156 12.5 11 12.5 C 8.2402328 12.5 6 10.259997 6 7.5 C 6 6.967013 6.0855396 6.4544739 6.2402344 5.9726562 L 2.4804688 3.6367188 z M 11 4.5 C 10.38499 4.5 9.8131507 4.6840665 9.3378906 5 L 13.972656 7.8789062 C 13.988332 7.7543582 14 7.6288834 14 7.5 C 14 5.8400017 12.660198 4.5 11 4.5 z M 8.03125 7.0859375 C 8.0125366 7.2217124 8 7.3589811 8 7.5 C 8 9.1599983 9.3398417 10.5 11 10.5 C 11.628072 10.5 12.210239 10.306849 12.691406 9.9785156 L 8.03125 7.0859375 z " />
  </g>
  <g
     inkscape:groupmode="layer"
     id="layer3"
     inkscape:label="Layer 2">
    <rect
       style="fill:#000000;stroke-width:1.2471"
       id="rect757"
       width="23.847252"
       height="1.3080772"
       x="1.454262"
       y="-0.037922997"
       ry="0"
       rx="3.2554262e-17"
       transform="matrix(0.8522686,0.52310442,-0.58794355,0.80890196,0,0)" />
  </g>
</svg>
