<svg width="22.000000" height="15.000000" viewBox="0 0 22 15" fill="currentColor" xmlns="http://www.w3.org/2000/svg">
	<defs/>
	<mask id="mask_0_989" fill="white">
		<path id=" ↳Color" d="M11 0C6 0 1.73047 3.11 0 7.5C1.73047 11.89 6 15 11 15C16 15 20.2695 11.89 22 7.5C20.2695 3.11 16 0 11 0ZM11 12.5C8.24023 12.5 6 10.26 6 7.5C6 4.74001 8.24023 2.5 11 2.5C13.7598 2.5 16 4.74001 16 7.5C16 10.26 13.7598 12.5 11 12.5ZM8 7.5C8 5.84 9.33984 4.5 11 4.5C12.6602 4.5 14 5.84 14 7.5C14 9.16 12.6602 10.5 11 10.5C9.33984 10.5 8 9.16 8 7.5Z" clip-rule="evenodd" fill="" fill-opacity="1.000000" fill-rule="evenodd"/>
	</mask>
	<path id=" ↳Color" d="M11 0C6 0 1.73047 3.11 0 7.5C1.73047 11.89 6 15 11 15C16 15 20.2695 11.89 22 7.5C20.2695 3.11 16 0 11 0ZM11 12.5C8.24023 12.5 6 10.26 6 7.5C6 4.74001 8.24023 2.5 11 2.5C13.7598 2.5 16 4.74001 16 7.5C16 10.26 13.7598 12.5 11 12.5ZM8 7.5C8 5.84 9.33984 4.5 11 4.5C12.6602 4.5 14 5.84 14 7.5C14 9.16 12.6602 10.5 11 10.5C9.33984 10.5 8 9.16 8 7.5Z" clip-rule="evenodd" fill="#000000" fill-opacity="1.000000" fill-rule="evenodd" mask="url(#mask_0_989)"/>
	<path id=" ↳Color" d="" fill="#979797" fill-opacity="0.000000" fill-rule="nonzero"/>
</svg>
